<?xml version="1.0" encoding="UTF-8"?>
<mxfile host="app.diagrams.net">
  <diagram id="network-map" name="Mapa de Red y Comunicaciones - Travelio">
    <mxGraphModel dx="1090" dy="640" grid="1" gridSize="10" guides="1" tooltips="1" connect="1" arrows="1" fold="1" page="1" pageScale="1" pageWidth="1200" pageHeight="900" math="0" shadow="0">
      <root>
        <mxCell id="0" />
        <mxCell id="1" parent="0" />
        
        <!-- Infraestructura DEV -->
        <mxCell id="2" value="Infraestructura DEV" style="text;html=1;strokeColor=none;fillColor=none;align=center;verticalAlign=middle;fontSize=14;fontStyle=1" vertex="1" parent="1">
          <mxGeometry x="200" y="20" width="400" height="30" as="geometry" />
        </mxCell>

        <mxCell id="3" value="VPC DEV (10.232.0.0/16)" style="swimlane;fillColor=#D9EAD3;horizontal=1;fontSize=12;fontStyle=1" vertex="1" parent="1">
          <mxGeometry x="50" y="50" width="600" height="350" as="geometry" />
        </mxCell>

        <mxCell id="4" value="Subnet 1 (10.232.19.96/27) - Servidores de Aplicación" style="swimlane;fillColor=#EAD3D9;horizontal=1;fontSize=10" vertex="1" parent="3">
          <mxGeometry x="10" y="20" width="180" height="280" as="geometry" />
        </mxCell>

        <mxCell id="5" value="pangea-dev-travelio-app&#10;CentOS 7 - JBoss" style="text;html=1;strokeColor=#000000;fillColor=#F3F3F3" vertex="1" parent="4">
          <mxGeometry x="10" y="40" width="160" height="50" as="geometry" />
        </mxCell>

        <mxCell id="6" value="Nginx Reverse Proxy" style="text;html=1;strokeColor=#000000;fillColor=#F4CCCC" vertex="1" parent="4">
          <mxGeometry x="10" y="100" width="160" height="50" as="geometry" />
        </mxCell>

        <mxCell id="7" value="Subnet 2 (10.232.19.128/27) - Base de Datos" style="swimlane;fillColor=#EAD3D9;horizontal=1;fontSize=10" vertex="1" parent="3">
          <mxGeometry x="210" y="20" width="180" height="280" as="geometry" />
        </mxCell>

        <mxCell id="8" value="pangea-dev-travelio-dbs&#10;Amazon Linux - MySQL 5.7" style="text;html=1;strokeColor=#000000;fillColor=#F3F3F3" vertex="1" parent="7">
          <mxGeometry x="10" y="40" width="160" height="50" as="geometry" />
        </mxCell>

        <mxCell id="9" value="Docker Containers" style="text;html=1;strokeColor=#000000;fillColor=#D5A6BD" vertex="1" parent="7">
          <mxGeometry x="10" y="100" width="160" height="50" as="geometry" />
        </mxCell>

        <!-- Firewall / Seguridad -->
        <mxCell id="10" value="Firewall & Security Groups" style="text;html=1;strokeColor=#FF0000;fillColor=#F3F3F3;fontStyle=1" vertex="1" parent="1">
          <mxGeometry x="650" y="50" width="200" height="50" as="geometry" />
        </mxCell>

        <!-- Infraestructura PROD -->
        <mxCell id="11" value="Infraestructura PROD" style="text;html=1;strokeColor=none;fillColor=none;align=center;verticalAlign=middle;fontSize=14;fontStyle=1" vertex="1" parent="1">
          <mxGeometry x="200" y="420" width="400" height="30" as="geometry" />
        </mxCell>

        <mxCell id="12" value="VPC PROD (10.234.0.0/16)" style="swimlane;fillColor=#E6B8AF;horizontal=1;fontSize=12;fontStyle=1" vertex="1" parent="1">
          <mxGeometry x="50" y="450" width="600" height="350" as="geometry" />
        </mxCell>

        <mxCell id="13" value="Subnet 1 (10.234.19.96/27) - Servidores de Aplicación" style="swimlane;fillColor=#EAD3D9;horizontal=1;fontSize=10" vertex="1" parent="12">
          <mxGeometry x="10" y="20" width="180" height="280" as="geometry" />
        </mxCell>

        <mxCell id="14" value="pangea-prod-travelio-app&#10;CentOS 7 - JBoss" style="text;html=1;strokeColor=#000000;fillColor=#F3F3F3" vertex="1" parent="13">
          <mxGeometry x="10" y="40" width="160" height="50" as="geometry" />
        </mxCell>

        <mxCell id="15" value="Peering Connection (VPC Common)" style="text;html=1;strokeColor=#008000;fillColor=#F3F3F3;fontStyle=1" vertex="1" parent="1">
          <mxGeometry x="650" y="200" width="200" height="50" as="geometry" />
        </mxCell>

      </root>
    </mxGraphModel>
  </diagram>
</mxfile>
